<svg width="512" height="512" viewBox="0 0 512 512" fill="none" xmlns="http://www.w3.org/2000/svg">
<path fill-rule="evenodd" clip-rule="evenodd" d="M437.408 74.405C389.278 26.4476 325.267 0.0284444 257.072 0C116.555 0 2.19505 113.806 2.13788 253.69C2.12073 298.405 13.8562 342.05 36.1668 380.53L0 512L135.144 476.718C172.38 496.93 214.303 507.585 256.969 507.597H257.072C257.078 507.597 257.066 507.597 257.072 507.597C397.572 507.597 511.943 393.779 512 253.889C512.029 186.101 485.539 122.362 437.408 74.405ZM153.545 262.923C150.361 258.691 127.536 228.551 127.536 197.348C127.536 166.144 143.993 150.807 149.829 144.464C155.665 138.121 162.571 136.533 166.818 136.533C171.065 136.533 175.318 136.573 179.028 136.755C182.938 136.954 188.191 135.276 193.358 147.638C198.669 160.33 211.405 191.539 212.999 194.708C214.594 197.882 215.652 201.58 213.531 205.813C211.41 210.039 210.347 212.685 207.163 216.388C203.979 220.092 200.475 224.654 197.606 227.493C194.416 230.656 191.095 234.086 194.81 240.43C198.526 246.778 211.307 267.537 230.245 284.348C254.574 305.948 275.101 312.639 281.469 315.813C287.837 318.987 291.552 318.458 295.268 314.226C298.983 309.993 311.193 295.714 315.441 289.371C319.688 283.028 323.935 284.086 329.771 286.197C335.613 288.313 366.927 303.65 373.295 306.819C379.663 309.993 383.91 311.58 385.505 314.226C387.1 316.871 387.1 329.563 381.789 344.371C376.479 359.179 351.03 372.696 338.792 374.511C327.816 376.144 313.931 376.826 298.669 371.996C289.42 369.078 277.553 365.175 262.354 358.645C198.463 331.184 156.734 267.156 153.545 262.923Z" fill="white"/>
<g filter="url(#filter0_d)">
<path fill-rule="evenodd" clip-rule="evenodd" d="M422.527 88.3014C378.345 44.2781 319.585 20.0261 256.984 20C127.993 20 23.015 124.471 22.9625 252.88C22.9468 293.926 33.7196 333.991 54.2 369.314L21 490L145.058 457.612C179.239 476.166 217.723 485.948 256.889 485.958H256.984C256.989 485.958 256.979 485.958 256.984 485.958C385.959 485.958 490.948 381.477 491 253.063C491.026 190.835 466.71 132.325 422.527 88.3014ZM161.949 261.355C159.026 257.47 138.074 229.803 138.074 201.159C138.074 172.515 153.181 158.436 158.538 152.613C163.896 146.79 170.235 145.333 174.133 145.333C178.032 145.333 181.936 145.37 185.342 145.537C188.931 145.72 193.753 144.179 198.497 155.527C203.372 167.178 215.063 195.827 216.527 198.736C217.991 201.65 218.962 205.044 217.015 208.93C215.068 212.81 214.092 215.238 211.169 218.638C208.246 222.037 205.03 226.226 202.396 228.831C199.468 231.735 196.419 234.884 199.83 240.707C203.24 246.535 214.974 265.591 232.358 281.022C254.691 300.851 273.534 306.992 279.38 309.906C285.225 312.82 288.636 312.335 292.047 308.449C295.457 304.564 306.666 291.456 310.565 285.634C314.463 279.811 318.362 280.782 323.72 282.72C329.082 284.662 357.827 298.741 363.673 301.65C369.519 304.564 373.417 306.021 374.881 308.449C376.345 310.878 376.345 322.529 371.471 336.122C366.596 349.715 343.235 362.123 332 363.789C321.925 365.288 309.179 365.915 295.169 361.481C286.679 358.802 275.785 355.22 261.832 349.225C203.183 324.017 164.877 265.241 161.949 261.355Z" fill="#25D366"/>
</g>
<ellipse cx="256" cy="253" rx="227" ry="229" fill="#25D366"/>
<g filter="url(#filter1_d)">
<path d="M382.333 243.109C392.107 248.924 392.107 263.076 382.333 268.891L205.42 374.148C195.421 380.097 182.75 372.892 182.75 361.257L182.75 150.743C182.75 139.108 195.421 131.903 205.42 137.852L382.333 243.109Z" fill="white"/>
</g>
<defs>
<filter id="filter0_d" x="16" y="15" width="490" height="490" filterUnits="userSpaceOnUse" color-interpolation-filters="sRGB">
<feFlood flood-opacity="0" result="BackgroundImageFix"/>
<feColorMatrix in="SourceAlpha" type="matrix" values="0 0 0 0 0 0 0 0 0 0 0 0 0 0 0 0 0 0 127 0" result="hardAlpha"/>
<feOffset dx="5" dy="5"/>
<feGaussianBlur stdDeviation="5"/>
<feComposite in2="hardAlpha" operator="out"/>
<feColorMatrix type="matrix" values="0 0 0 0 0.492014 0 0 0 0 0.541667 0 0 0 0 0.510562 0 0 0 1 0"/>
<feBlend mode="normal" in2="BackgroundImageFix" result="effect1_dropShadow"/>
<feBlend mode="normal" in="SourceGraphic" in2="effect1_dropShadow" result="shape"/>
</filter>
<filter id="filter1_d" x="182.75" y="135.72" width="221.914" height="255.561" filterUnits="userSpaceOnUse" color-interpolation-filters="sRGB">
<feFlood flood-opacity="0" result="BackgroundImageFix"/>
<feColorMatrix in="SourceAlpha" type="matrix" values="0 0 0 0 0 0 0 0 0 0 0 0 0 0 0 0 0 0 127 0" result="hardAlpha"/>
<feOffset dx="10" dy="10"/>
<feGaussianBlur stdDeviation="2.5"/>
<feComposite in2="hardAlpha" operator="out"/>
<feColorMatrix type="matrix" values="0 0 0 0 0 0 0 0 0 0 0 0 0 0 0 0 0 0 0.28 0"/>
<feBlend mode="normal" in2="BackgroundImageFix" result="effect1_dropShadow"/>
<feBlend mode="normal" in="SourceGraphic" in2="effect1_dropShadow" result="shape"/>
</filter>
</defs>
</svg>
